<svg xmlns="http://www.w3.org/2000/svg" version="1.1" xmlns:xlink="http://www.w3.org/1999/xlink" xmlns:svgjs="http://svgjs.dev/svgjs" width="1500" height="227" viewBox="0 0 1500 227"><g transform="matrix(1,0,0,1,-0.9090909090909918,-0.9064070659840553)"><svg viewBox="0 0 396 60" data-background-color="#ece6d6" preserveAspectRatio="xMidYMid meet" height="227" width="1500" xmlns="http://www.w3.org/2000/svg" xmlns:xlink="http://www.w3.org/1999/xlink"><g id="tight-bounds" transform="matrix(1,0,0,1,0.2400000000000091,0.23957896017199687)"><svg viewBox="0 0 395.52 59.52084207965601" height="59.52084207965601" width="395.52"><g><svg viewBox="0 0 480.11312519303743 72.25105558501441" height="59.52084207965601" width="395.52"><g transform="matrix(1,0,0,1,0,9.985493210374642)"><svg viewBox="0 0 395.52 52.28006916426513" height="52.28006916426513" width="395.52"><g id="textblocktransform"><svg viewBox="0 0 395.52 52.28006916426513" height="52.28006916426513" width="395.52" id="textblock"><g><svg viewBox="0 0 395.52 52.28006916426513" height="52.28006916426513" width="395.52"><g transform="matrix(1,0,0,1,0,0)"><svg width="395.52" viewBox="2.4 -33.9 260.22 34.4" height="52.28006916426513" data-palette-color="#b2572b"><g class="wordmark-text-0" data-fill-palette-color="primary" id="text-0"><path d="M12.75-32.5L12.75-32.5Q14.3-32.5 15.33-32.33 16.35-32.15 17.43-31.85 18.5-31.55 20.1-31.15L20.1-31.15Q20.4-29.25 20.58-27.23 20.75-25.2 20.8-24.2L20.8-24.2Q20.85-23.95 20.45-23.83 20.05-23.7 19.8-23.7L19.8-23.7Q19.45-23.7 19.25-23.9L19.25-23.9Q19.15-24.8 18.65-26 18.15-27.2 17.28-28.3 16.4-29.4 15.18-30.13 13.95-30.85 12.4-30.85L12.4-30.85Q10.4-30.85 9.25-30 8.1-29.15 7.6-27.9 7.1-26.65 7.1-25.45L7.1-25.45Q7.1-23.5 8.13-22.2 9.15-20.9 10.73-19.9 12.3-18.9 13.9-17.85L13.9-17.85Q15.1-17.1 16.55-16.2 18-15.3 19.35-14.2 20.7-13.1 21.55-11.68 22.4-10.25 22.4-8.45L22.4-8.45Q22.4-5.8 20.93-3.78 19.45-1.75 17.13-0.63 14.8 0.5 12.2 0.5L12.2 0.5Q9.75 0.5 7.48-0.05 5.2-0.6 3.4-0.95L3.4-0.95Q3.1-2.4 2.88-4.05 2.65-5.7 2.53-6.95 2.4-8.2 2.4-8.5L2.4-8.5Q2.65-8.75 2.98-8.93 3.3-9.1 3.65-9.1L3.65-9.1Q4.1-9.1 4.2-8.65L4.2-8.65Q4.35-7.95 4.83-6.73 5.3-5.5 6.23-4.2 7.15-2.9 8.63-2.02 10.1-1.15 12.3-1.15L12.3-1.15Q14.65-1.15 16.4-2.73 18.15-4.3 18.15-7.15L18.15-7.15Q18.15-9.2 17.23-10.35 16.3-11.5 14.83-12.35 13.35-13.2 11.65-14.15L11.65-14.15Q9.8-15.25 7.83-16.57 5.85-17.9 4.5-19.7 3.15-21.5 3.15-23.95L3.15-23.95Q3.15-26.55 4.53-28.48 5.9-30.4 8.1-31.45 10.3-32.5 12.75-32.5ZM36.9-21.45L36.9-21.45Q40.15-21.45 42.47-20.05 44.8-18.65 46.07-16.25 47.35-13.85 47.35-10.8L47.35-10.8Q47.35-7.65 46-5.13 44.65-2.6 42.3-1.13 39.95 0.35 37 0.35L37 0.35Q33.8 0.35 31.42-1.07 29.05-2.5 27.77-4.93 26.5-7.35 26.5-10.4L26.5-10.4Q26.5-13.55 27.87-16.05 29.25-18.55 31.6-20 33.95-21.45 36.9-21.45ZM36.35-19.8L36.35-19.8Q34.3-19.8 33.05-18.57 31.8-17.35 31.25-15.43 30.7-13.5 30.7-11.4L30.7-11.4Q30.7-9.05 31.47-6.7 32.25-4.35 33.77-2.8 35.3-1.25 37.5-1.25L37.5-1.25Q39.6-1.25 40.82-2.48 42.05-3.7 42.6-5.65 43.15-7.6 43.15-9.65L43.15-9.65Q43.15-12.05 42.35-14.38 41.55-16.7 40.05-18.25 38.55-19.8 36.35-19.8ZM66.39-5.1L66.39-15.6Q66.39-15.65 66.39-15.8L66.39-15.8Q66.39-16.3 66.34-17.03 66.3-17.75 66.05-18.25L66.05-18.25Q65.69-18.95 64.75-19.1 63.8-19.25 63.3-19.25L63.3-19.25Q63.2-19.35 63.17-19.83 63.14-20.3 63.3-20.5L63.3-20.5Q65.19-20.6 66.94-20.85 68.69-21.1 70-21.5L70-21.5Q70.19-21.5 70.34-21 70.5-20.5 70.5-20.3L70.5-20.3Q70.34-20 70.27-19.1 70.19-18.2 70.19-17.15L70.19-17.15 70.19-6.9Q70.19-6.5 70.25-5.33 70.3-4.15 70.5-3.15L70.5-3.15Q70.64-2.55 71.62-2.45 72.59-2.35 73.09-2.3L73.09-2.3Q73.34-2.3 73.39-2.3L73.39-2.3Q73.5-2.25 73.52-2.05 73.55-1.85 73.55-1.75L73.55-1.75Q73.55-1.7 73.44-1.35 73.34-1 73.14-1L73.14-1Q71.89-0.95 70.42-0.6 68.94-0.25 67.89 0.08 66.84 0.4 66.8 0.4L66.8 0.4Q66.59 0.4 66.5 0.13 66.39-0.15 66.39-0.4L66.39-0.4 66.39-2.65Q66.39-2.85 66.34-2.88 66.3-2.9 66.3-2.9L66.3-2.9Q65.64-2.2 64.5-1.43 63.34-0.65 61.99-0.15 60.64 0.35 59.39 0.35L59.39 0.35Q57.45 0.35 56.24-0.58 55.05-1.5 54.39-2.98 53.74-4.45 53.52-6.15 53.3-7.85 53.3-9.4L53.3-9.4 53.3-15.6Q53.3-16.1 53.24-16.9 53.2-17.7 52.89-18.25L52.89-18.25Q52.55-18.95 51.59-19.1 50.64-19.25 50.14-19.25L50.14-19.25Q50.05-19.35 50.02-19.83 49.99-20.3 50.14-20.5L50.14-20.5Q52.05-20.6 53.8-20.85 55.55-21.1 56.84-21.5L56.84-21.5Q57.05-21.5 57.22-21.1 57.39-20.7 57.39-20.5L57.39-20.5Q57.24-20.2 57.14-19.2 57.05-18.2 57.05-17.15L57.05-17.15 57.05-9.95Q57.05-6.05 58.22-4.23 59.39-2.4 61.95-2.4L61.95-2.4Q63.05-2.4 64.05-2.83 65.05-3.25 65.72-3.9 66.39-4.55 66.39-5.1L66.39-5.1ZM90.19-21.4L90.19-21.4Q92.84-21.4 94.19-20.3 95.54-19.2 96.02-16.9 96.49-14.6 96.49-11.05L96.49-11.05 96.49-5.65Q96.49-4.55 96.52-3.6 96.54-2.65 96.74-2.05L96.74-2.05Q96.84-1.8 97.47-1.6 98.09-1.4 98.79-1.33 99.49-1.25 99.79-1.25L99.79-1.25Q99.94-1.05 99.97-0.55 99.99-0.05 99.79 0.15L99.79 0.15Q98.29 0.05 97.17-0.03 96.04-0.1 94.59-0.1L94.59-0.1Q93.19-0.1 92.04-0.03 90.89 0.05 89.39 0.15L89.39 0.15Q89.19-0.05 89.22-0.55 89.24-1.05 89.39-1.25L89.39-1.25Q89.69-1.25 90.42-1.33 91.14-1.4 91.79-1.6 92.44-1.8 92.49-2.05L92.49-2.05Q92.69-2.65 92.72-3.6 92.74-4.55 92.74-5.65L92.74-5.65 92.74-10.55Q92.74-13.6 92.34-15.33 91.94-17.05 90.89-17.8 89.84-18.55 87.94-18.55L87.94-18.55Q87.04-18.55 85.97-17.98 84.89-17.4 84.09-16.75 83.29-16.1 83.29-15.85L83.29-15.85 83.29-5.65Q83.29-4.55 83.32-3.6 83.34-2.65 83.54-2.05L83.54-2.05Q83.64-1.8 84.27-1.6 84.89-1.4 85.59-1.33 86.29-1.25 86.59-1.25L86.59-1.25Q86.74-1.05 86.77-0.55 86.79-0.05 86.59 0.15L86.59 0.15Q85.09 0.05 83.97-0.03 82.84-0.1 81.39-0.1L81.39-0.1Q79.99-0.1 78.84-0.03 77.69 0.05 76.19 0.15L76.19 0.15Q75.99-0.05 76.02-0.55 76.04-1.05 76.19-1.25L76.19-1.25Q76.49-1.25 77.22-1.33 77.94-1.4 78.59-1.6 79.24-1.8 79.29-2.05L79.29-2.05Q79.49-2.65 79.52-3.6 79.54-4.55 79.54-5.65L79.54-5.65 79.54-14.55Q79.54-15.05 79.52-15.95 79.49-16.85 79.29-17.3L79.29-17.3Q79.14-17.75 78.44-17.93 77.74-18.1 77.04-18.13 76.34-18.15 76.14-18.15L76.14-18.15Q76.09-18.25 76.04-18.75 75.99-19.25 76.14-19.45L76.14-19.45Q78.04-19.7 79.84-20.2 81.64-20.7 83.09-21.5L83.09-21.5Q83.29-21.5 83.47-21.2 83.64-20.9 83.64-20.7L83.64-20.7Q83.64-20.55 83.57-19.93 83.49-19.3 83.42-18.7 83.34-18.1 83.34-17.9L83.34-17.9Q83.34-17.7 83.44-17.7L83.44-17.7Q83.49-17.7 83.59-17.8L83.59-17.8Q84.09-18.35 85.22-19.2 86.34-20.05 87.69-20.73 89.04-21.4 90.19-21.4ZM113.94-21.4L113.94-21.4Q114.74-21.4 115.84-21.23 116.94-21.05 117.29-20.9L117.29-20.9Q117.54-20.9 117.54-21.9L117.54-21.9 117.54-27.25Q117.54-27.8 117.52-28.58 117.49-29.35 117.29-29.8L117.29-29.8Q117.09-30.35 116.19-30.5 115.29-30.65 114.29-30.65L114.29-30.65Q114.24-30.65 114.22-31.28 114.19-31.9 114.34-31.95L114.34-31.95Q116.19-32.15 117.97-32.68 119.74-33.2 121.29-33.9L121.29-33.9Q121.49-33.9 121.67-33.63 121.84-33.35 121.84-33.1L121.84-33.1Q121.84-33.1 121.56-32 121.29-30.9 121.29-28.85L121.29-28.85 121.29-7.95Q121.29-6.55 121.37-5.13 121.44-3.7 121.64-3.15L121.64-3.15Q121.89-2.6 122.81-2.48 123.74-2.35 124.24-2.3L124.24-2.3Q124.44-2.3 124.49-2.3L124.49-2.3Q124.59-2.25 124.62-2.02 124.64-1.8 124.64-1.7L124.64-1.7Q124.64-1.65 124.56-1.33 124.49-1 124.29-1L124.29-1Q123.04-0.95 121.56-0.6 120.09-0.25 119.04 0.08 117.99 0.4 117.94 0.4L117.94 0.4Q117.74 0.4 117.64 0.05 117.54-0.3 117.54-0.55L117.54-0.55 117.54-2.25Q117.54-2.7 117.39-2.55L117.39-2.55Q117.04-2.15 115.92-1.45 114.79-0.75 113.44-0.18 112.09 0.4 110.89 0.4L110.89 0.4Q108.69 0.4 106.72-0.98 104.74-2.35 103.52-4.73 102.29-7.1 102.29-10.05L102.29-10.05Q102.29-12.45 103.47-14.53 104.64-16.6 106.47-18.13 108.29-19.65 110.29-20.53 112.29-21.4 113.94-21.4ZM112.34-19.35L112.34-19.35Q110.49-19.35 109.17-18.18 107.84-17 107.11-15.15 106.39-13.3 106.39-11.25L106.39-11.25Q106.39-8.95 107.19-7 107.99-5.05 109.54-3.85 111.09-2.65 113.29-2.65L113.29-2.65Q114.94-2.65 116.24-3.33 117.54-4 117.54-4.6L117.54-4.6 117.54-16.95Q117.54-17.8 115.97-18.57 114.39-19.35 112.34-19.35ZM138.24-32.5L138.24-32.5Q139.79-32.5 140.81-32.33 141.84-32.15 142.91-31.85 143.99-31.55 145.59-31.15L145.59-31.15Q145.89-29.25 146.06-27.23 146.24-25.2 146.29-24.2L146.29-24.2Q146.34-23.95 145.94-23.83 145.54-23.7 145.29-23.7L145.29-23.7Q144.94-23.7 144.74-23.9L144.74-23.9Q144.64-24.8 144.14-26 143.64-27.2 142.76-28.3 141.89-29.4 140.66-30.13 139.44-30.85 137.89-30.85L137.89-30.85Q135.89-30.85 134.74-30 133.59-29.15 133.09-27.9 132.59-26.65 132.59-25.45L132.59-25.45Q132.59-23.5 133.61-22.2 134.64-20.9 136.21-19.9 137.79-18.9 139.39-17.85L139.39-17.85Q140.59-17.1 142.04-16.2 143.49-15.3 144.84-14.2 146.19-13.1 147.04-11.68 147.89-10.25 147.89-8.45L147.89-8.45Q147.89-5.8 146.41-3.78 144.94-1.75 142.61-0.63 140.29 0.5 137.69 0.5L137.69 0.5Q135.24 0.5 132.96-0.05 130.69-0.6 128.89-0.95L128.89-0.95Q128.59-2.4 128.36-4.05 128.14-5.7 128.01-6.95 127.89-8.2 127.89-8.5L127.89-8.5Q128.14-8.75 128.46-8.93 128.79-9.1 129.14-9.1L129.14-9.1Q129.59-9.1 129.69-8.65L129.69-8.65Q129.84-7.95 130.31-6.73 130.79-5.5 131.71-4.2 132.64-2.9 134.11-2.02 135.59-1.15 137.79-1.15L137.79-1.15Q140.14-1.15 141.89-2.73 143.64-4.3 143.64-7.15L143.64-7.15Q143.64-9.2 142.71-10.35 141.79-11.5 140.31-12.35 138.84-13.2 137.14-14.15L137.14-14.15Q135.29-15.25 133.31-16.57 131.34-17.9 129.99-19.7 128.64-21.5 128.64-23.95L128.64-23.95Q128.64-26.55 130.01-28.48 131.39-30.4 133.59-31.45 135.79-32.5 138.24-32.5ZM164.99-21.4L164.99-21.4Q167.64-21.4 168.99-20.3 170.34-19.2 170.81-16.9 171.29-14.6 171.29-11.05L171.29-11.05 171.29-5.65Q171.29-4.55 171.31-3.6 171.34-2.65 171.54-2.05L171.54-2.05Q171.64-1.8 172.26-1.6 172.89-1.4 173.61-1.33 174.34-1.25 174.64-1.25L174.64-1.25Q174.79-1.05 174.81-0.55 174.84-0.05 174.64 0.15L174.64 0.15Q173.14 0.05 171.99-0.03 170.84-0.1 169.39-0.1L169.39-0.1Q167.99-0.1 166.86-0.03 165.74 0.05 164.24 0.15L164.24 0.15Q164.04-0.05 164.06-0.55 164.09-1.05 164.24-1.25L164.24-1.25Q164.54-1.25 165.24-1.33 165.94-1.4 166.59-1.6 167.24-1.8 167.29-2.05L167.29-2.05Q167.49-2.65 167.51-3.6 167.54-4.55 167.54-5.65L167.54-5.65 167.54-10.55Q167.54-13.6 167.14-15.33 166.74-17.05 165.69-17.8 164.64-18.55 162.74-18.55L162.74-18.55Q161.84-18.55 160.76-17.98 159.69-17.4 158.89-16.75 158.09-16.1 158.09-15.85L158.09-15.85 158.09-5.65Q158.09-4.55 158.11-3.6 158.14-2.65 158.34-2.05L158.34-2.05Q158.44-1.8 159.06-1.6 159.69-1.4 160.41-1.33 161.14-1.25 161.44-1.25L161.44-1.25Q161.59-1.05 161.61-0.55 161.64-0.05 161.44 0.15L161.44 0.15Q159.94 0.05 158.79-0.03 157.64-0.1 156.19-0.1L156.19-0.1Q154.79-0.1 153.66-0.03 152.54 0.05 151.04 0.15L151.04 0.15Q150.84-0.05 150.86-0.55 150.89-1.05 151.04-1.25L151.04-1.25Q151.34-1.25 152.04-1.33 152.74-1.4 153.39-1.6 154.04-1.8 154.09-2.05L154.09-2.05Q154.29-2.65 154.31-3.6 154.34-4.55 154.34-5.65L154.34-5.65 154.34-27.25Q154.34-27.75 154.31-28.55 154.29-29.35 154.09-29.8L154.09-29.8Q153.89-30.35 153.01-30.5 152.14-30.65 151.14-30.65L151.14-30.65Q151.09-30.65 151.06-31.28 151.04-31.9 151.19-31.95L151.19-31.95Q153.04-32.15 154.79-32.68 156.54-33.2 158.09-33.9L158.09-33.9Q158.29-33.9 158.46-33.63 158.64-33.35 158.64-33.1L158.64-33.1Q158.64-33.1 158.36-32 158.09-30.9 158.09-28.85L158.09-28.85 158.09-17.8Q158.09-17.7 158.24-17.7L158.24-17.7Q158.29-17.7 158.39-17.8L158.39-17.8Q158.89-18.35 160.01-19.2 161.14-20.05 162.49-20.73 163.84-21.4 164.99-21.4ZM180.53-12.1L180.53-12.1Q180.48-9 181.58-6.9 182.68-4.8 184.53-3.78 186.38-2.75 188.53-2.75L188.53-2.75Q189.88-2.75 190.98-3.23 192.08-3.7 192.83-4.33 193.58-4.95 193.88-5.3L193.88-5.3Q193.93-5.3 194.11-5.13 194.28-4.95 194.28-4.65L194.28-4.65Q194.28-4.25 193.98-3.75L193.98-3.75Q193.53-3.05 192.58-2.08 191.63-1.1 190.18-0.35 188.73 0.4 186.83 0.4L186.83 0.4Q183.98 0.4 181.78-0.95 179.58-2.3 178.33-4.6 177.08-6.9 177.08-9.75L177.08-9.75Q177.08-12.2 177.96-14.33 178.83-16.45 180.26-18.03 181.68-19.6 183.38-20.5 185.08-21.4 186.68-21.4L186.68-21.4Q188.88-21.4 190.31-20.65 191.73-19.9 192.56-18.8 193.38-17.7 193.71-16.6 194.03-15.5 194.03-14.75L194.03-14.75Q194.03-13.7 193.78-13.1 193.53-12.5 192.83-12.45L192.83-12.45Q192.38-12.4 191.06-12.38 189.73-12.35 188.03-12.3 186.33-12.25 184.68-12.2 183.03-12.15 181.88-12.13 180.73-12.1 180.53-12.1ZM180.78-13.9L180.78-13.9 188.73-13.9Q189.18-13.9 189.51-14.15 189.83-14.4 189.88-15.05L189.88-15.05Q189.93-15.65 189.53-16.75 189.13-17.85 188.26-18.75 187.38-19.65 185.88-19.65L185.88-19.65Q184.33-19.65 183.33-18.78 182.33-17.9 181.76-16.78 181.18-15.65 180.96-14.78 180.73-13.9 180.78-13.9ZM200.43-5.65L200.43-27.25Q200.43-27.8 200.41-28.58 200.38-29.35 200.18-29.8L200.18-29.8Q199.98-30.35 199.11-30.5 198.23-30.65 197.23-30.65L197.23-30.65Q197.18-30.65 197.16-31.28 197.13-31.9 197.28-31.95L197.28-31.95Q199.13-32.15 200.88-32.68 202.63-33.2 204.18-33.9L204.18-33.9Q204.38-33.9 204.56-33.63 204.73-33.35 204.73-33.1L204.73-33.1Q204.73-33.1 204.46-32 204.18-30.9 204.18-28.85L204.18-28.85 204.18-5.65Q204.18-4.55 204.21-3.6 204.23-2.65 204.43-2.05L204.43-2.05Q204.53-1.8 205.16-1.6 205.78-1.4 206.51-1.33 207.23-1.25 207.53-1.25L207.53-1.25Q207.68-1.05 207.71-0.55 207.73-0.05 207.53 0.15L207.53 0.15Q206.03 0.05 204.88-0.03 203.73-0.1 202.28-0.1L202.28-0.1Q200.88-0.1 199.76-0.03 198.63 0.05 197.13 0.15L197.13 0.15Q196.93-0.05 196.96-0.55 196.98-1.05 197.13-1.25L197.13-1.25Q197.43-1.25 198.13-1.33 198.83-1.4 199.48-1.6 200.13-1.8 200.18-2.05L200.18-2.05Q200.38-2.65 200.41-3.6 200.43-4.55 200.43-5.65L200.43-5.65ZM216.33-27.5L216.33-21.1 222.63-21.1Q222.88-21.1 222.88-20.55L222.88-20.55Q222.88-19.8 222.18-19.1L222.18-19.1 216.33-19.1 216.33-6.3Q216.33-2.3 219.58-2.3L219.58-2.3Q220.68-2.3 221.58-2.75 222.48-3.2 222.73-3.4L222.73-3.4Q222.88-3.35 222.88-3.1L222.88-3.1Q222.88-2.55 222.68-2.35L222.68-2.35Q222.33-1.95 221.6-1.3 220.88-0.65 219.88-0.15 218.88 0.35 217.68 0.35L217.68 0.35Q216.43 0.35 215.25-0.1 214.08-0.55 213.33-1.7 212.58-2.85 212.58-4.95L212.58-4.95 212.58-19.1 209.73-19.1Q209.63-19.1 209.58-19.28 209.53-19.45 209.53-19.55L209.53-19.55Q209.53-19.65 209.83-20.03 210.13-20.4 210.45-20.75 210.78-21.1 210.78-21.1L210.78-21.1 212.58-21.1 212.58-24.15Q213.08-24.7 213.75-25.43 214.43-26.15 214.98-26.78 215.53-27.4 215.58-27.45L215.58-27.45Q215.78-27.65 216.05-27.65 216.33-27.65 216.33-27.5L216.33-27.5ZM229.08-12.1L229.08-12.1Q229.03-9 230.13-6.9 231.23-4.8 233.08-3.78 234.93-2.75 237.08-2.75L237.08-2.75Q238.43-2.75 239.53-3.23 240.63-3.7 241.38-4.33 242.13-4.95 242.43-5.3L242.43-5.3Q242.48-5.3 242.65-5.13 242.83-4.95 242.83-4.65L242.83-4.65Q242.83-4.25 242.53-3.75L242.53-3.75Q242.08-3.05 241.13-2.08 240.18-1.1 238.73-0.35 237.28 0.4 235.38 0.4L235.38 0.4Q232.53 0.4 230.33-0.95 228.13-2.3 226.88-4.6 225.63-6.9 225.63-9.75L225.63-9.75Q225.63-12.2 226.5-14.33 227.38-16.45 228.8-18.03 230.23-19.6 231.93-20.5 233.63-21.4 235.23-21.4L235.23-21.4Q237.43-21.4 238.85-20.65 240.28-19.9 241.1-18.8 241.93-17.7 242.25-16.6 242.58-15.5 242.58-14.75L242.58-14.75Q242.58-13.7 242.33-13.1 242.08-12.5 241.38-12.45L241.38-12.45Q240.93-12.4 239.6-12.38 238.28-12.35 236.58-12.3 234.88-12.25 233.23-12.2 231.58-12.15 230.43-12.13 229.28-12.1 229.08-12.1ZM229.33-13.9L229.33-13.9 237.28-13.9Q237.73-13.9 238.05-14.15 238.38-14.4 238.43-15.05L238.43-15.05Q238.48-15.65 238.08-16.75 237.68-17.85 236.8-18.75 235.93-19.65 234.43-19.65L234.43-19.65Q232.88-19.65 231.88-18.78 230.88-17.9 230.3-16.78 229.73-15.65 229.5-14.78 229.28-13.9 229.33-13.9ZM259.42-21.35L259.42-21.35Q260.37-21.35 261.22-20.93 262.07-20.5 262.42-19.9L262.42-19.9Q262.52-19.7 262.57-19.35 262.62-19 262.62-18.6L262.62-18.6Q262.62-17.25 262-16.65 261.37-16.05 260.97-16.05L260.97-16.05Q260.47-16.05 260.02-16.4 259.57-16.75 259.17-17L259.17-17Q258.82-17.25 258.45-17.43 258.07-17.6 257.37-17.6L257.37-17.6Q256.32-17.6 255.45-16.73 254.57-15.85 254.02-14.8 253.47-13.75 253.47-13.2L253.47-13.2 253.47-5.65Q253.47-4.55 253.5-3.6 253.52-2.65 253.72-2.05L253.72-2.05Q253.82-1.8 254.72-1.6 255.62-1.4 256.62-1.33 257.62-1.25 257.92-1.25L257.92-1.25Q258.07-1.05 258.1-0.55 258.12-0.05 257.92 0.15L257.92 0.15Q256.42 0.05 254.87-0.03 253.32-0.1 251.87-0.1L251.87-0.1Q250.47-0.1 249.17-0.03 247.87 0.05 246.37 0.15L246.37 0.15Q246.17-0.05 246.2-0.55 246.22-1.05 246.37-1.25L246.37-1.25Q246.67-1.25 247.4-1.33 248.12-1.4 248.77-1.6 249.42-1.8 249.47-2.05L249.47-2.05Q249.67-2.65 249.7-3.6 249.72-4.55 249.72-5.65L249.72-5.65 249.72-14.75Q249.72-15.25 249.7-16.05 249.67-16.85 249.47-17.3L249.47-17.3Q249.32-17.75 248.62-17.93 247.92-18.1 247.22-18.13 246.52-18.15 246.32-18.15L246.32-18.15Q246.27-18.25 246.22-18.75 246.17-19.25 246.32-19.45L246.32-19.45Q248.22-19.7 250.02-20.2 251.82-20.7 253.27-21.5L253.27-21.5Q253.47-21.5 253.65-21.2 253.82-20.9 253.82-20.7L253.82-20.7Q253.82-20.55 253.72-19.55 253.62-18.55 253.55-17.53 253.47-16.5 253.47-16.2L253.47-16.2Q253.47-16.05 253.55-16.05 253.62-16.05 253.67-16.1L253.67-16.1Q254.17-17.15 255.1-18.38 256.02-19.6 257.17-20.48 258.32-21.35 259.42-21.35Z" fill="#b2572b" data-fill-palette-color="primary"></path></g></svg></g></svg></g></svg></g></svg></g><g transform="matrix(1,0,0,1,407.86206960802303,0)"><svg viewBox="0 0 72.25105558501438 72.25105558501441" height="72.25105558501441" width="72.25105558501438"><g><svg xmlns="http://www.w3.org/2000/svg" xmlns:xlink="http://www.w3.org/1999/xlink" version="1.1" x="0" y="0" viewBox="5.916 5.916000000000004 79.07399999999998 79.07400000000001" enable-background="new 0 0 100 100" xml:space="preserve" height="72.25105558501441" width="72.25105558501438" class="icon-icon-0" data-fill-palette-color="accent" id="icon-0"><path d="M66.09 18.65l0.57-2.67c1.45 0.31 3.34 0.59 5.46 0.59 4.88 0 7.76-1.69 7.76-1.69V10.6c0 0-3.26 1.02-7.76 1.02-3.83 0-7.73-0.73-8.86-0.95l-0.18-0.04c-0.09-0.02-0.14-0.03-0.14-0.03l-1.45 6.05c-3.65-1.29-7.58-1.99-11.66-1.99-19.4 0-35.17 15.77-35.17 35.16 0 19.4 15.77 35.17 35.17 35.17 19.39 0 35.16-15.77 35.16-35.17C84.99 36.29 77.32 24.53 66.09 18.65zM63.37 31.3c5.7 4.19 9.399 10.93 9.399 18.52 0 12.66-10.289 22.95-22.939 22.95-12.66 0-22.96-10.29-22.96-22.95 0-12.65 10.3-22.95 22.96-22.95 3.11 0 6.08 0.62 8.78 1.75L55.34 42.24c-1.54-1.12-3.45-1.79-5.51-1.79-5.18 0-9.38 4.2-9.38 9.37 0 5.18 4.2 9.38 9.38 9.38 4.47 0 8.22-3.14 9.14-7.35l0.08-0.39L63.37 31.3zM49.83 81.17c-17.29 0-31.36-14.06-31.36-31.35 0-17.28 14.07-31.34 31.36-31.34 3.78 0 7.41 0.67 10.76 1.91l-1.32 5.5c-2.92-1.17-6.109-1.81-9.439-1.81-14.2 0-25.75 11.55-25.75 25.74 0 14.2 11.55 25.75 25.75 25.75 14.189 0 25.74-11.55 25.74-25.75 0-8.95-4.601-16.86-11.561-21.47l1.24-5.8c9.5 5.39 15.92 15.59 15.92 27.27C81.17 67.11 67.11 81.17 49.83 81.17z" fill="#d6acae" data-fill-palette-color="accent"></path><path d="M35.232 49.825h-3c0-9.7 7.892-17.592 17.593-17.592v3C41.778 35.232 35.232 41.778 35.232 49.825z" fill="#d6acae" data-fill-palette-color="accent"></path><path d="M8.916 49.825h-3c0-24.211 19.697-43.909 43.909-43.909v3C27.268 8.916 8.916 27.268 8.916 49.825z" fill="#d6acae" data-fill-palette-color="accent"></path></svg></g></svg></g></svg></g><defs></defs></svg><rect width="395.52" height="59.52084207965601" fill="none" stroke="none" visibility="hidden"></rect></g></svg></g></svg>